<?xml version="1.0" encoding="UTF-8" standalone="no"?>
<!DOCTYPE svg PUBLIC "-//W3C//DTD SVG 1.1//EN"
 "http://www.w3.org/Graphics/SVG/1.1/DTD/svg11.dtd">
<!-- Generated by graphviz version 2.38.0 (20140413.2041)
 -->
<!-- Title: models_diagram Pages: 1 -->
<svg width="656pt" height="228pt"
 viewBox="0.00 0.00 656.34 228.00" xmlns="http://www.w3.org/2000/svg" xmlns:xlink="http://www.w3.org/1999/xlink">
<g id="graph0" class="graph" transform="scale(1 1) rotate(0) translate(4 224)">
<title>models_diagram</title>
<polygon fill="none" stroke="none" points="-4,4 -4,-224 652.343,-224 652.343,4 -4,4"/>
<!-- _diagram_info -->
<g id="node1" class="node"><title>_diagram_info</title>
<text text-anchor="start" x="8" y="-198.6" font-family="Times,serif" font-size="13.00">Models diagram</text>
<text text-anchor="start" x="8" y="-184.6" font-family="Times,serif" font-size="13.00">Date: Oct 25 2017 &#45; 17:51</text>
<text text-anchor="start" x="8" y="-170.6" font-family="Times,serif" font-size="13.00">Migration version: 20171025171030</text>
<text text-anchor="start" x="8" y="-156.6" font-family="Times,serif" font-size="13.00">Generated by RailRoady 1.5.3</text>
<text text-anchor="start" x="8" y="-142.6" font-family="Times,serif" font-size="13.00">http://railroady.prestonlee.com</text>
</g>
<!-- Tag -->
<g id="node2" class="node"><title>Tag</title>
<path fill="none" stroke="black" d="M244,-128.5C244,-128.5 464,-128.5 464,-128.5 470,-128.5 476,-134.5 476,-140.5 476,-140.5 476,-207.5 476,-207.5 476,-213.5 470,-219.5 464,-219.5 464,-219.5 244,-219.5 244,-219.5 238,-219.5 232,-213.5 232,-207.5 232,-207.5 232,-140.5 232,-140.5 232,-134.5 238,-128.5 244,-128.5"/>
<text text-anchor="middle" x="354" y="-204.3" font-family="Times,serif" font-size="14.00">Tag</text>
<polyline fill="none" stroke="black" points="232,-196.5 476,-196.5 "/>
<text text-anchor="start" x="240" y="-181.3" font-family="Times,serif" font-size="14.00">id :bigint</text>
<text text-anchor="start" x="240" y="-166.3" font-family="Times,serif" font-size="14.00">name :character varying</text>
<text text-anchor="start" x="240" y="-151.3" font-family="Times,serif" font-size="14.00">created_at :timestamp without time zone</text>
<text text-anchor="start" x="240" y="-136.3" font-family="Times,serif" font-size="14.00">updated_at :timestamp without time zone</text>
</g>
<!-- Movie -->
<g id="node3" class="node"><title>Movie</title>
<path fill="none" stroke="black" d="M244,-0.5C244,-0.5 464,-0.5 464,-0.5 470,-0.5 476,-6.5 476,-12.5 476,-12.5 476,-79.5 476,-79.5 476,-85.5 470,-91.5 464,-91.5 464,-91.5 244,-91.5 244,-91.5 238,-91.5 232,-85.5 232,-79.5 232,-79.5 232,-12.5 232,-12.5 232,-6.5 238,-0.5 244,-0.5"/>
<text text-anchor="middle" x="354" y="-76.3" font-family="Times,serif" font-size="14.00">Movie</text>
<polyline fill="none" stroke="black" points="232,-68.5 476,-68.5 "/>
<text text-anchor="start" x="240" y="-53.3" font-family="Times,serif" font-size="14.00">id :bigint</text>
<text text-anchor="start" x="240" y="-38.3" font-family="Times,serif" font-size="14.00">name :character varying</text>
<text text-anchor="start" x="240" y="-23.3" font-family="Times,serif" font-size="14.00">created_at :timestamp without time zone</text>
<text text-anchor="start" x="240" y="-8.3" font-family="Times,serif" font-size="14.00">updated_at :timestamp without time zone</text>
</g>
<!-- Tag&#45;&gt;Movie -->
<g id="edge1" class="edge"><title>Tag&#45;&gt;Movie</title>
<path fill="none" stroke="#229a55" d="M354,-118.013C354,-112.641 354,-107.19 354,-101.82"/>
<polygon fill="#229a55" stroke="#229a55" points="354,-118.222 349.5,-128.222 354,-123.222 354,-128.222 354,-128.222 354,-128.222 354,-123.222 358.5,-128.222 354,-118.222 354,-118.222"/>
<polygon fill="#229a55" stroke="#229a55" points="354,-101.633 358.5,-91.6334 354,-96.6335 354,-91.6335 354,-91.6335 354,-91.6335 354,-96.6335 349.5,-91.6335 354,-101.633 354,-101.633"/>
</g>
<!-- ApplicationRecord -->
<g id="node4" class="node"><title>ApplicationRecord</title>
<ellipse fill="none" stroke="black" cx="571" cy="-174" rx="77.1866" ry="18"/>
<text text-anchor="middle" x="571" y="-170.3" font-family="Times,serif" font-size="14.00">ApplicationRecord</text>
</g>
</g>
</svg>
