<?xml version="1.0" encoding="UTF-8" standalone="no"?>
<!DOCTYPE svg PUBLIC "-//W3C//DTD SVG 1.1//EN"
 "http://www.w3.org/Graphics/SVG/1.1/DTD/svg11.dtd">
<!-- Generated by graphviz version 2.38.0 (20140413.2041)
 -->
<!-- Title: models_diagram Pages: 1 -->
<svg width="580pt" height="158pt"
 viewBox="0.00 0.00 580.34 158.00" xmlns="http://www.w3.org/2000/svg" xmlns:xlink="http://www.w3.org/1999/xlink">
<g id="graph0" class="graph" transform="scale(1 1) rotate(0) translate(4 154)">
<title>models_diagram</title>
<polygon fill="none" stroke="none" points="-4,4 -4,-154 576.343,-154 576.343,4 -4,4"/>
<!-- _diagram_info -->
<g id="node1" class="node"><title>_diagram_info</title>
<text text-anchor="start" x="8" y="-135.6" font-family="Times,serif" font-size="13.00">Models diagram</text>
<text text-anchor="start" x="8" y="-121.6" font-family="Times,serif" font-size="13.00">Date: Oct 25 2017 &#45; 17:52</text>
<text text-anchor="start" x="8" y="-107.6" font-family="Times,serif" font-size="13.00">Migration version: 20171025171030</text>
<text text-anchor="start" x="8" y="-93.6" font-family="Times,serif" font-size="13.00">Generated by RailRoady 1.5.3</text>
<text text-anchor="start" x="8" y="-79.6" font-family="Times,serif" font-size="13.00">http://railroady.prestonlee.com</text>
</g>
<!-- Tag -->
<g id="node2" class="node"><title>Tag</title>
<ellipse fill="none" stroke="black" cx="259" cy="-111" rx="27" ry="18"/>
<text text-anchor="middle" x="259" y="-107.3" font-family="Times,serif" font-size="14.00">Tag</text>
</g>
<!-- Movie -->
<g id="node3" class="node"><title>Movie</title>
<ellipse fill="none" stroke="black" cx="259" cy="-18" rx="34.394" ry="18"/>
<text text-anchor="middle" x="259" y="-14.3" font-family="Times,serif" font-size="14.00">Movie</text>
</g>
<!-- Tag&#45;&gt;Movie -->
<g id="edge1" class="edge"><title>Tag&#45;&gt;Movie</title>
<path fill="none" stroke="#0b2bb9" d="M259,-82.5485C259,-71.0829 259,-57.7923 259,-46.3387"/>
<polygon fill="#0b2bb9" stroke="#0b2bb9" points="259,-82.8836 254.5,-92.8836 259,-87.8836 259,-92.8836 259,-92.8836 259,-92.8836 259,-87.8836 263.5,-92.8836 259,-82.8836 259,-82.8836"/>
<polygon fill="#0b2bb9" stroke="#0b2bb9" points="259,-46.0397 263.5,-36.0396 259,-41.0397 259,-36.0397 259,-36.0397 259,-36.0397 259,-41.0397 254.5,-36.0397 259,-46.0397 259,-46.0397"/>
</g>
<!-- MovieTag -->
<g id="node4" class="node"><title>MovieTag</title>
<ellipse fill="none" stroke="black" cx="352" cy="-111" rx="48.1917" ry="18"/>
<text text-anchor="middle" x="352" y="-107.3" font-family="Times,serif" font-size="14.00">MovieTag</text>
</g>
<!-- ApplicationRecord -->
<g id="node5" class="node"><title>ApplicationRecord</title>
<ellipse fill="none" stroke="black" cx="495" cy="-111" rx="77.1866" ry="18"/>
<text text-anchor="middle" x="495" y="-107.3" font-family="Times,serif" font-size="14.00">ApplicationRecord</text>
</g>
</g>
</svg>
